<?xml version="1.0" standalone="no"?>
<!DOCTYPE svg PUBLIC "-//W3C//DTD SVG 20010904//EN"
 "http://www.w3.org/TR/2001/REC-SVG-20010904/DTD/svg10.dtd">
<svg version="1.0" xmlns="http://www.w3.org/2000/svg"
 width="600.000000pt" height="600.000000pt" viewBox="0 0 600.000000 600.000000"
 preserveAspectRatio="xMidYMid meet">
<metadata>
Created by potrace 1.10, written by Peter Selinger 2001-2011
</metadata>
<g transform="translate(0.000000,600.000000) scale(0.100000,-0.100000)"
fill="#FFFFFF" stroke="none">
<path d="M1625 5860 c-220 -21 -231 -23 -390 -77 -38 -14 -83 -28 -100 -33
-26 -6 -110 -45 -155 -71 -8 -4 -37 -20 -65 -34 -84 -44 -95 -51 -162 -106
-118 -96 -157 -131 -191 -168 -33 -36 -196 -249 -219 -286 -24 -38 -102 -200
-118 -245 -44 -124 -76 -239 -88 -315 -6 -35 -12 -633 -14 -1450 -5 -1422 -2
-1553 33 -1700 25 -103 45 -169 60 -198 8 -16 14 -35 14 -44 0 -13 15 -48 41
-93 5 -8 11 -21 14 -27 13 -33 16 -40 34 -68 11 -16 29 -47 41 -69 37 -68 142
-199 230 -286 76 -76 219 -194 260 -214 15 -7 22 -11 95 -56 22 -14 58 -33 80
-44 22 -10 52 -25 67 -32 14 -8 33 -14 41 -14 9 0 28 -6 44 -14 30 -16 105
-36 218 -61 39 -8 142 -19 229 -25 211 -13 2524 -13 2728 0 186 12 345 43 446
86 18 8 37 14 43 14 20 0 205 96 269 139 36 25 85 58 110 75 42 29 240 220
287 278 33 40 118 168 143 213 33 63 39 74 50 92 6 10 13 25 16 33 3 8 12 29
19 45 27 63 64 186 88 290 33 143 37 303 37 1587 0 1297 -5 1475 -40 1609 -6
24 -18 71 -27 104 -8 33 -21 75 -29 93 -8 18 -14 37 -14 42 0 9 -35 88 -79
180 -41 85 -185 281 -272 370 -92 94 -216 195 -299 243 -109 63 -265 134 -345
157 -16 4 -43 13 -60 18 -65 23 -144 41 -225 53 -65 10 -396 14 -1425 15 -737
1 -1376 -2 -1420 -6z m3400 -520 c86 -41 125 -100 125 -189 0 -97 -52 -165
-149 -197 l-54 -17 -92 31 c-101 36 -137 39 -179 17 -15 -8 -33 -15 -39 -15
-24 0 -98 -44 -122 -72 -41 -48 -34 -88 23 -146 26 -26 67 -63 91 -82 43 -33
45 -34 150 -35 98 0 111 -3 154 -28 71 -42 99 -93 99 -179 0 -49 -5 -75 -16
-87 -9 -10 -16 -22 -16 -27 0 -19 -55 -61 -102 -79 -51 -19 -109 -16 -151 8
-37 21 -70 47 -84 67 -22 31 -44 129 -34 147 12 22 -18 87 -56 121 -61 57
-109 90 -138 96 -58 12 -97 15 -118 7 -33 -12 -135 23 -173 60 -47 46 -67 119
-53 192 12 60 37 93 101 133 35 22 49 25 102 21 33 -2 93 -16 132 -30 l72 -26
53 19 c116 41 160 76 201 161 31 65 76 119 98 119 8 0 24 7 34 15 27 21 93 18
141 -5z m-1729 -534 c39 -7 77 -17 84 -21 9 -6 -200 -220 -690 -707 -387 -384
-706 -698 -709 -698 -7 0 -27 61 -56 165 -8 30 -21 80 -30 110 -8 30 -21 80
-30 110 -8 30 -21 80 -30 110 -8 30 -22 80 -30 110 -9 30 -22 81 -31 112 -9
32 -22 78 -30 103 -19 61 -29 140 -18 140 5 0 25 14 43 31 40 37 220 173 241
182 8 4 31 17 50 28 108 66 252 131 360 162 194 57 249 69 340 78 108 11 453
1 536 -15z m294 -67 c62 -22 93 -35 225 -100 142 -70 182 -94 297 -181 125
-94 255 -225 347 -348 98 -132 101 -137 136 -205 14 -27 30 -57 35 -65 5 -8
11 -22 14 -30 3 -8 10 -22 15 -30 12 -20 35 -74 56 -130 9 -25 24 -59 32 -77
8 -17 13 -36 9 -41 -6 -10 -56 -3 -116 16 -19 6 -64 18 -100 27 -36 9 -87 22
-115 30 -27 7 -79 21 -115 30 -36 9 -89 23 -117 31 -29 8 -77 20 -105 28 -29
8 -82 22 -118 31 -36 9 -87 22 -115 30 -27 7 -79 21 -115 30 -36 9 -89 23
-117 31 -29 8 -77 20 -105 28 -29 8 -82 22 -118 31 -36 9 -87 22 -115 30 -27
7 -79 21 -115 30 -62 16 -114 30 -225 61 -27 7 -65 16 -83 20 -18 3 -36 13
-39 21 -8 20 696 726 717 719 8 -2 31 -10 50 -17z m-1956 -531 c2 -7 10 -38
19 -68 8 -30 23 -84 32 -120 9 -36 23 -90 32 -120 8 -30 21 -79 29 -107 8 -29
20 -77 28 -105 8 -29 22 -82 31 -118 9 -36 23 -90 32 -120 8 -30 21 -77 28
-105 7 -27 20 -75 28 -105 9 -30 23 -84 32 -120 9 -36 23 -90 32 -120 16 -59
37 -134 58 -215 7 -27 20 -75 28 -105 8 -30 22 -84 31 -120 10 -36 23 -85 31
-110 8 -25 17 -65 20 -89 l7 -44 -43 7 c-24 3 -64 13 -89 21 -25 7 -74 21
-110 30 -36 9 -90 23 -120 32 -30 8 -79 21 -108 29 -126 33 -235 63 -323 88
-31 9 -63 16 -73 16 -9 0 -30 7 -45 15 -25 12 -31 25 -44 87 -39 185 -40 521
-1 693 28 123 45 189 60 223 8 18 14 39 14 47 0 24 109 255 150 320 11 17 23
37 27 45 7 16 100 147 118 166 6 6 24 27 40 47 32 39 44 44 49 25z m2273 -574
c29 -8 77 -21 105 -28 83 -22 158 -43 218 -59 57 -16 119 -32 230 -61 62 -17
106 -29 222 -61 29 -8 65 -17 80 -20 23 -4 29 -14 42 -58 20 -71 39 -251 38
-371 -1 -181 -47 -444 -98 -564 -8 -18 -14 -39 -14 -47 0 -23 -111 -258 -150
-320 -11 -16 -23 -37 -27 -45 -10 -23 -145 -199 -191 -250 -29 -32 -42 -41
-45 -30 -9 31 -39 137 -52 185 -7 28 -20 75 -28 105 -9 30 -23 84 -32 120 -9
36 -23 89 -31 118 -8 28 -20 76 -28 105 -8 28 -22 81 -31 117 -9 36 -22 88
-30 115 -7 28 -21 79 -30 115 -9 36 -23 89 -31 117 -37 136 -63 231 -89 333
-10 36 -23 85 -30 110 -13 42 -24 83 -62 220 -9 30 -23 76 -31 101 -26 80 -18
85 95 53z m73 -1088 c0 -10 6 -39 14 -65 19 -60 63 -220 91 -331 9 -36 23 -90
32 -120 8 -30 21 -79 29 -108 21 -81 41 -152 58 -213 24 -82 21 -103 -16 -132
-18 -13 -44 -35 -58 -47 -23 -21 -127 -93 -188 -132 -39 -24 -161 -83 -207
-101 -60 -22 -120 -45 -162 -62 -212 -81 -626 -125 -828 -86 -103 20 -175 40
-175 50 0 9 1342 1350 1375 1375 22 16 35 6 35 -28z m-2610 -141 c25 -8 74
-21 110 -31 36 -9 90 -23 120 -31 30 -8 78 -21 105 -28 28 -7 77 -21 110 -30
114 -31 160 -43 225 -60 103 -26 242 -65 435 -119 33 -10 83 -23 110 -31 64
-16 144 -38 220 -60 33 -9 83 -22 110 -30 28 -7 77 -21 110 -31 33 -9 66 -18
73 -20 6 -2 12 -11 12 -20 0 -8 -153 -169 -341 -357 l-341 -341 -31 16 c-58
28 -108 48 -118 48 -10 0 -195 89 -234 113 -11 7 -44 30 -75 52 -30 22 -73 52
-95 67 -87 57 -213 183 -354 353 -88 106 -257 432 -276 534 l-7 33 43 -7 c24
-3 64 -12 89 -20z"/>
</g>
</svg>
